<svg width="46" height="80" viewBox="0 0 46 80" fill="none" xmlns="http://www.w3.org/2000/svg">
<g clip-path="url(#clip0_752_305)">
<path d="M20.212 19.2144H40.4878C43.4166 19.2144 45.3159 21.5953 45.3159 24.2661V67.0709C45.3159 70.9015 42.8048 73.2504 40.4878 74.022L23.4946 79.7519C23.4946 79.7519 18.3126 75.2136 16.5116 68.6803C16.5116 68.6803 18.7107 71.6238 22.2882 71.6238C26.5365 71.6238 30.2049 68.3658 30.2049 64.3091C30.2049 60.2525 30.2295 40.7507 30.2295 32.544C30.2295 24.3374 22.9885 19.7992 20.212 19.2119V19.2144Z" fill="url(#paint0_linear_752_305)"/>
<path d="M22.4553 80C22.4553 80 14.9317 73.0882 14.9317 64.5917V32.3769C14.9317 27.2932 20.5953 25.8116 22.5904 25.8116C24.5856 25.8116 27.0967 27.0352 28.738 28.9665C28.738 28.9665 27.2908 23.6248 22.6224 21.3397C17.9564 19.0546 14.7696 19.2168 13.0643 19.2168C11.3591 19.2168 7.33444 19.2168 5.05181 19.2168C2.76919 19.2168 0 20.6616 0 24.556V68.1004C0 72.0096 3.84539 73.5551 5.48671 74.1349C7.12804 74.7148 22.4553 80 22.4553 80Z" fill="url(#paint1_linear_752_305)"/>
<path d="M30.2516 7.65871C30.2516 11.8898 26.8215 15.3174 22.5929 15.3174C18.3642 15.3174 14.9341 11.8873 14.9341 7.65871C14.9341 3.43008 18.3618 0 22.5929 0C26.8239 0 30.2516 3.43008 30.2516 7.65871Z" fill="url(#paint2_linear_752_305)"/>
</g>
<defs>
<linearGradient id="paint0_linear_752_305" x1="30.9125" y1="19.5362" x2="30.9125" y2="78.8182" gradientUnits="userSpaceOnUse">
<stop stop-color="#00B0C3"/>
<stop offset="1" stop-color="#3151B0"/>
</linearGradient>
<linearGradient id="paint1_linear_752_305" x1="14.369" y1="19.5362" x2="14.369" y2="80.3243" gradientUnits="userSpaceOnUse">
<stop stop-color="#3151B0"/>
<stop offset="1" stop-color="#00B0C3"/>
</linearGradient>
<linearGradient id="paint2_linear_752_305" x1="22.5929" y1="0.515986" x2="22.5929" y2="15.6884" gradientUnits="userSpaceOnUse">
<stop stop-color="#FABE40"/>
<stop offset="1" stop-color="#F07728"/>
</linearGradient>
<clipPath id="clip0_752_305">
<rect width="45.3134" height="80" fill="white"/>
</clipPath>
</defs>
</svg>
